<?xml version="1.0" encoding="UTF-8"?>
<!DOCTYPE svg PUBLIC "-//W3C//DTD SVG 1.1//EN" "http://www.w3.org/Graphics/SVG/1.1/DTD/svg11.dtd">
<!-- Creator: CorelDRAW X7 -->
<svg xmlns="http://www.w3.org/2000/svg" xml:space="preserve" width="28.6006mm" height="28.5483mm" version="1.1" style="shape-rendering:geometricPrecision; text-rendering:geometricPrecision; image-rendering:optimizeQuality; fill-rule:evenodd; clip-rule:evenodd"
viewBox="0 0 1530 1527"
 xmlns:xlink="http://www.w3.org/1999/xlink">
 <defs>
  <style type="text/css">
   <![CDATA[
    .fil1 {fill:url(#id0)}
    .fil2 {fill:url(#id1);fill-rule:nonzero}
    .fil0 {fill:url(#id2);fill-opacity:0.149020}
   ]]>
  </style>
  <linearGradient id="id0" gradientUnits="userSpaceOnUse" x1="94.1295" y1="383.457" x2="1435.94" y2="1143.82">
   <stop offset="0" style="stop-opacity:1; stop-color:#FFDB6E"/>
   <stop offset="0.258824" style="stop-opacity:1; stop-color:#FFDB6E"/>
   <stop offset="1" style="stop-opacity:1; stop-color:#FFBC5E"/>
  </linearGradient>
  <linearGradient id="id1" gradientUnits="objectBoundingBox" xlink:href="#id0" x1="9.24442%" y1="21.25%" x2="90.7569%" y2="78.75%">
  </linearGradient>
  <linearGradient id="id2" gradientUnits="userSpaceOnUse" xlink:href="#id0" x1="448.783" y1="587.284" x2="1065.48" y2="936.753">
  </linearGradient>
 </defs>
 <g id="Layer_x0020_1">
  <metadata id="CorelCorpID_0Corel-Layer"/>
  <path class="fil0" d="M581 413l352 0c97,0 177,80 177,177l0 344c0,97 -80,177 -177,177l-352 0c-97,0 -177,-80 -177,-177l0 -344c0,-97 80,-177 177,-177z"/>
  <path class="fil1" d="M464 1121c19,5 23,14 67,14l252 0c51,0 201,2 245,-4 16,-3 48,-18 56,-28 18,-7 13,-11 23,-24 14,-17 12,-19 19,-34 12,-27 6,-134 6,-168 0,-92 0,-183 0,-275 0,-22 0,-45 0,-67 0,-35 -3,-47 -16,-71 -14,-24 -28,-36 -51,-53 -9,-6 -51,-18 -66,-18l-344 0c-46,1 -94,-1 -139,0 -17,1 -6,5 -26,6l-21 4c0,0 -1,0 -1,1l-3 2c-15,12 -26,16 -35,26l-6 7c0,0 0,0 -1,1 0,0 0,1 -1,1 0,0 0,1 0,1l-13 14c-2,3 -2,8 -4,12 -4,7 -4,2 -6,12 -7,31 -9,-1 -9,61 0,34 -2,462 0,482l12 39c4,7 4,5 4,15 2,1 3,1 5,2l12 14c1,2 1,3 2,4 2,2 0,0 4,3 0,0 2,1 3,1 9,6 8,7 11,14l17 4c1,0 2,1 2,1 1,0 1,1 2,1zm-326 69c3,4 1,2 5,5 8,6 58,14 76,5l9 -6c9,-8 5,-25 4,-38 -15,-6 1,-2 -15,-12l-7 -4c-15,-8 -31,4 -51,-7 -12,-7 -9,0 -30,-12 -12,-7 1,-5 -14,-8 -10,-5 -18,-20 -23,-26 -19,-29 -18,-69 -6,-101 4,-10 1,-4 5,-11 7,-11 0,-6 13,-22 18,-22 22,-23 43,-40l28 -21c1,-1 1,-1 2,-1l2 -2c0,0 0,-1 1,-1 23,-25 76,-53 95,-82 3,-5 5,-5 8,-8 9,-2 4,2 10,-7l38 -75c2,-4 11,-55 -3,-70 -1,0 -1,0 -1,-1l-8 -6c-9,-4 -21,-2 -31,-1 -5,8 -1,3 -10,9 -9,7 -8,18 -8,33 0,8 1,10 -3,17 -7,10 -2,4 -5,15 -2,9 -3,4 -6,13 -5,13 -8,17 -16,28 -4,7 -5,6 -10,11l-5 6c-1,0 -1,1 -1,1 -16,15 -14,7 -21,16 -2,3 -1,3 -4,6l-13 12c-3,3 -1,0 -4,2 0,1 -5,4 -5,5 -13,10 -21,10 -24,21 -5,3 -5,4 -9,7 -6,4 -5,2 -11,7l-52 45 -26 32c-1,1 -2,3 -3,5l-5 6c-4,6 -1,6 -6,14 -3,5 -4,5 -6,12 -3,9 -4,8 -6,14l-9 29c-7,42 3,62 14,100 3,10 9,16 15,22 8,9 -2,2 12,17l26 23c5,3 6,5 11,7 13,6 24,17 40,17zm233 -991c-16,6 -44,51 -54,67 -5,8 -14,28 -10,39 3,7 11,15 18,18 22,11 40,-7 43,-22 10,-1 3,-1 15,-16 7,-9 -4,-2 11,-19 8,-8 17,-20 30,-28 19,-12 13,-12 31,-12 5,-8 0,-6 10,-7 25,-5 45,5 51,6 22,4 43,27 51,45 4,8 4,6 7,12 2,6 2,10 3,16 2,10 4,6 6,14 4,15 -2,39 5,52 4,10 5,-1 5,15 16,0 8,10 31,8 10,0 9,0 14,-5l2 -2c22,-18 12,-44 8,-79 -1,-18 -5,-19 -8,-31 -2,-9 1,-5 -4,-13 -4,-5 -1,1 -4,-7 -7,-19 -2,-4 -10,-18 -3,-4 -5,-8 -8,-12l-28 -31c-12,-10 -27,-20 -41,-26l-7 -3c-7,-3 -3,-4 -15,-5 -35,-6 -78,-5 -110,12 -1,0 -1,0 -2,1 0,0 -1,0 -1,0 -3,1 -3,1 -5,2 -9,4 -4,4 -11,8 -12,8 -19,9 -23,21zm1117 415c10,-4 0,0 5,-3 20,-12 35,-44 35,-68 1,-31 -12,-55 -36,-73 -5,-3 -8,-7 -15,-10 -3,-2 -6,-2 -9,-4 -19,-7 -8,-5 -34,-5 -15,0 -13,-1 -23,5 -13,7 -13,1 -33,21 -6,6 -21,24 -22,33 -11,-3 -87,-2 -101,-1 -19,2 -48,40 -69,59l-38 39c-8,12 -7,30 1,40 12,12 16,12 39,11 2,-4 2,-5 6,-8l16 -15c7,-6 18,-15 23,-22l22 -23c22,-25 30,-16 87,-17 20,0 12,4 25,13 29,32 44,39 89,37 22,-1 18,-7 32,-9zm-118 -364c-1,15 31,35 34,35 17,4 23,10 44,7 8,-1 4,-2 13,-4 16,-5 14,1 26,-9 8,-7 20,-17 26,-25 14,-20 4,-11 13,-24 6,-9 5,-38 2,-48l-9 -26c-3,-4 -3,-2 -7,-9 -4,-8 -4,-7 -17,-16 -13,-10 -24,-13 -40,-15 -22,-4 -26,-3 -46,3 -1,0 -6,1 -6,2 -1,0 -1,0 -2,0l-22 14c-5,7 -2,-1 -3,8 -1,5 -4,7 -7,12 -14,23 -6,19 -47,19l-177 0c-28,0 -63,-2 -90,0 -27,2 -43,38 -72,60 -9,8 -14,15 -23,23 -4,3 -7,5 -11,9 -4,4 -6,8 -10,12l-46 44c-19,18 -28,37 -6,56 10,8 24,4 34,-2l133 -134c9,-12 15,-14 28,-14l222 1c14,0 31,-1 44,-1 7,1 4,0 8,2 8,4 9,12 14,20zm-665 -226c-9,2 0,-1 -6,2l-11 12c-8,11 -16,32 -17,43 -2,14 1,16 4,27 12,40 18,37 45,61 3,3 5,5 8,7l1 190c1,4 1,2 3,5 15,20 35,22 53,6 12,-11 9,-42 9,-62 0,-23 0,-46 0,-69 0,-105 -5,-60 29,-92 8,-6 4,-3 11,-6 1,-11 0,-8 5,-15 6,-7 2,-3 6,-14 12,-31 6,-41 -1,-65 -5,-18 1,-1 -10,-20 -3,-4 -2,-3 -5,-6 0,0 -1,-1 -2,-1 0,-1 0,-1 -1,-2 -26,-26 -49,-27 -86,-24 -10,1 -16,6 -28,12l-1 7c-1,0 -5,4 -6,4zm-687 630c1,7 -6,17 -9,27 -3,11 -7,17 -8,31 -4,80 1,67 20,117l18 32 17 12c14,8 30,-1 37,-15 12,-25 -24,-49 -32,-81 -8,-33 -4,-40 0,-71 1,-13 20,-48 27,-50 10,-1 8,-3 23,-16l5 -5c15,-17 3,-26 7,-43 0,0 0,-1 1,-2l11 22c5,11 9,16 18,24l9 11c21,34 65,12 61,-19 -2,-12 -12,-24 -20,-32l-11 -19c-2,-5 -1,-5 -2,-9 -2,-5 -1,-2 -4,-6 -8,-11 -1,-23 -9,-34l-3 -7c-3,-20 7,-60 19,-74l8 -11c6,-8 15,-13 23,-19l28 -13c6,-1 13,-1 18,-2 8,-3 4,-4 16,-4 8,-1 14,0 20,2l38 6c2,6 17,10 32,1 2,-2 2,-1 4,-2 25,-15 21,-56 -26,-65 -15,-3 -10,-7 -33,-7 -14,-1 -28,-1 -43,-1 -36,1 -30,5 -56,9 -9,1 -6,2 -12,6 0,0 -1,1 -1,1 0,0 -1,0 -2,1l-8 3c0,0 -1,1 -1,1 -11,8 -24,15 -35,24l-20 22c-7,7 -2,0 -6,6l-16 29c-3,6 -2,10 -4,17 -4,21 -8,-1 -8,58 0,14 0,39 4,49l2 5c0,1 1,4 1,5 2,8 3,13 3,21 -12,-4 -20,-14 -34,-11 -12,3 -19,12 -27,20 0,0 -1,0 -1,1 -11,11 -38,42 -39,55zm716 711c-14,7 -26,15 -34,23l-17 25c-5,8 -10,52 10,79l7 9c0,0 1,1 1,1 11,13 30,20 45,24 30,6 66,-10 82,-32 14,-21 13,-27 13,-56 0,-32 -12,-41 -29,-59l-23 -14c-2,-47 -1,-103 -1,-150 0,-29 5,-53 -19,-61 -11,-4 -22,1 -28,8 -7,10 -6,22 -6,36 0,52 3,117 -1,167zm13 54c-34,23 -1,69 29,51 9,-6 21,-22 11,-37 -6,-9 -7,-13 -14,-15 -6,-2 -19,-3 -26,1zm25 -1306c6,-1 12,-7 14,-13 3,-8 2,-18 -1,-25 -9,-4 0,1 -5,-3l-2 -2c-4,-5 2,-2 -4,-4 -27,-11 -49,21 -29,41 9,8 14,6 27,6zm550 625l-134 0c-13,0 -22,-1 -31,5 -11,7 -12,11 -12,24 0,32 35,27 61,27l120 0c58,0 26,10 53,30l25 18c5,2 10,2 15,5 23,10 55,2 73,-14 4,-4 3,-3 6,-6 29,-24 34,-75 13,-109 -5,-7 -24,-25 -34,-29 -39,-13 -70,-8 -98,19 -4,4 -7,6 -10,11 -14,20 5,19 -47,19zm98 41c12,11 8,11 29,10 3,-4 12,-13 14,-19 5,-14 -19,-37 -38,-22 -8,7 -8,17 -5,31zm10 -263c-37,22 -7,58 19,50 10,-4 22,-20 16,-34 -5,-11 -21,-24 -35,-16zm-282 380c0,4 -1,12 0,16 1,7 12,23 17,28l60 60c24,27 20,21 75,21l54 0 23 30c2,2 2,3 4,5 1,0 2,1 2,2 7,6 18,12 27,15 38,12 48,9 78,-11 12,-8 24,-23 30,-35 9,-17 8,-39 4,-55 -5,-18 -11,-29 -24,-41 -4,-3 -6,-4 -10,-7 -14,-11 -15,-12 -33,-15 -34,-6 -73,9 -88,39 -2,6 -2,7 -5,11 -9,11 -34,6 -56,6 -15,0 -32,3 -39,-4 -3,-3 -1,-1 -3,-4l-26 -25c-7,-7 -7,-8 -15,-15l-4 -4c0,-1 -1,-1 -1,-1 0,-1 -1,-1 -1,-1l-25 -22c-21,-16 -37,3 -44,7zm265 110c16,14 11,15 38,14 4,-6 16,-18 19,-26 6,-18 -25,-48 -49,-28 -12,10 -11,22 -8,40zm-1123 291c0,13 34,38 42,45 25,18 65,34 95,36 34,2 68,1 101,-10l25 -11c1,0 1,0 2,-1 0,0 0,0 1,0l15 -10c6,-4 8,-8 11,-10 5,-3 4,1 9,-6l21 -26c19,-16 4,-5 15,-18 3,-4 2,0 4,-7 5,-17 3,-6 7,-14 2,-4 1,-13 3,-19 10,-27 4,-11 9,-36 3,-15 7,-37 -4,-52 -6,-9 -4,4 -10,-11 -7,-1 -19,-2 -25,0 -17,3 1,6 -18,8 0,16 0,5 -5,13 -6,10 0,37 -5,54 -2,5 -4,8 -5,13l-5 10c-10,15 -7,25 -37,47 -4,3 -3,3 -10,7 -29,16 -65,22 -100,15l-60 -26c-9,-6 -23,-22 -29,-31l-4 -6c-21,-32 -12,-25 -19,-40 -9,-23 -9,-43 -8,-70 2,-54 5,-27 11,-66 2,-10 3,-20 8,-30l6 -12c3,-6 3,-10 3,-18 -1,-10 0,-9 -5,-14 0,0 -5,-5 -5,-5 -10,-10 -24,-14 -36,-6 -25,17 -22,47 -31,68 -6,14 1,14 -6,33 -7,21 -7,70 -6,93 2,41 3,22 9,49 2,8 23,60 36,64zm814 61c73,0 168,2 238,0 37,-2 13,13 47,39 4,4 10,6 14,9 8,4 9,3 18,5 41,5 59,-3 81,-27 13,-13 18,-29 18,-49 2,-88 -98,-113 -147,-53 -21,26 7,24 -65,24l-204 0c-47,0 -33,3 -68,-32l-102 -101c-8,-7 -15,-20 -31,-20 -13,0 -26,11 -27,25 0,19 39,49 57,69l90 90c5,6 8,5 13,10l7 6c13,8 43,5 61,5zm317 -6c6,4 16,11 28,6 4,-12 15,-12 16,-25 1,-26 -35,-33 -44,-16 -7,11 -2,23 0,35zm8 -1125c18,-1 10,4 28,-4 3,-14 5,-9 8,-17 2,-7 0,-11 -3,-15 -5,-8 -12,-17 -26,-14l-14 7c-8,6 -9,26 1,36 2,2 1,1 4,3 0,1 1,2 1,2 0,0 1,1 1,2zm-949 835c10,-1 22,13 57,13l364 0c42,0 103,7 134,-11 39,-24 33,-58 33,-112 0,-142 -3,-301 0,-439 0,-11 -2,-12 -6,-19 -5,-10 -3,-9 -12,-15 -13,-4 -20,-21 -60,-20l-232 0c-52,0 -104,0 -156,0 -25,0 -87,-5 -108,7 -27,15 -28,26 -34,45 -6,17 -5,1 -5,34 0,60 -2,447 0,464 7,43 23,37 25,53z"/>
  <path class="fil2" d="M768 889l-16 -41 -132 0 -15 42c-6,16 -11,27 -16,33 -4,5 -11,8 -21,8 -8,0 -15,-3 -22,-9 -6,-6 -9,-13 -9,-20 0,-5 1,-9 2,-14 2,-5 4,-11 7,-20l83 -210c3,-6 6,-14 9,-22 3,-9 7,-16 11,-21 3,-6 8,-10 14,-14 6,-3 14,-5 23,-5 9,0 17,2 23,5 6,4 11,8 15,14 3,5 7,11 9,17 3,6 6,15 10,25l85 209c6,16 10,28 10,35 0,8 -3,15 -10,21 -6,6 -14,9 -22,9 -6,0 -10,-1 -14,-3 -3,-1 -6,-4 -9,-7 -2,-3 -5,-8 -8,-15 -3,-6 -5,-12 -7,-17zm-130 -90l96 0 -48 -134 -48 134z"/>
  <path id="1" class="fil2" d="M889 891l0 -255c0,-13 3,-23 9,-30 6,-7 13,-10 23,-10 10,0 18,3 24,10 6,6 9,16 9,30l0 255c0,14 -3,24 -9,30 -6,7 -14,10 -24,10 -9,0 -17,-3 -23,-10 -6,-7 -9,-16 -9,-30z"/>
 </g>
</svg>
